<?xml version="1.0" encoding="utf-8"?>
<!-- Generator: Adobe Illustrator 16.0.0, SVG Export Plug-In . SVG Version: 6.00 Build 0)  -->
<!DOCTYPE svg PUBLIC "-//W3C//DTD SVG 1.1//EN" "http://www.w3.org/Graphics/SVG/1.1/DTD/svg11.dtd">
<svg version="1.1" id="Layer_1" xmlns:sketch="http://www.bohemiancoding.com/sketch/ns"
	 xmlns="http://www.w3.org/2000/svg" xmlns:xlink="http://www.w3.org/1999/xlink" x="0px" y="0px" width="48px" height="48px"
	 viewBox="-309 393 48 48" enable-background="new -309 393 48 48" xml:space="preserve">
<title>Imported Layers</title>
<desc>Created with Sketch Beta.</desc>
<g id="Page-1" sketch:type="MSPage">
	<g id="Pricing" transform="translate(-130.000000, -1800.000000)" sketch:type="MSArtboardGroup">
		<g id="What_x27_s-Included" transform="translate(130.000000, 1714.000000)" sketch:type="MSLayerGroup">
			<g id="Text" transform="translate(0.000000, 86.000000)" sketch:type="MSShapeGroup">
				<g id="Learn">
					<path id="Imported-Layers" fill="#BCA97A" d="M-300,396c-3.314,0-6,2.686-6,6v30c0,0.01,0.002,0.021,0.002,0.031
						c0,0.011-0.002,0.021-0.002,0.031h0.003c0.034,3.285,2.705,5.938,5.997,5.938h36v-42H-300L-300,396z M-304,402
						c0-1.859,1.28-3.411,3-3.857v28.015c-1.141,0.194-2.174,0.7-3,1.442V402L-304,402z M-266,436h-34
						c-2.195,0-3.979-1.777-3.997-3.969c0.018-2.191,1.802-3.969,3.997-3.969h34V436L-266,436z M-299,398h33v28.062h-33V398z"/>
				</g>
			</g>
		</g>
	</g>
</g>
</svg>
