<?xml version="1.0" encoding="utf-8"?>
<!-- Generator: Adobe Illustrator 16.0.0, SVG Export Plug-In . SVG Version: 6.00 Build 0)  -->
<!DOCTYPE svg PUBLIC "-//W3C//DTD SVG 1.1//EN" "http://www.w3.org/Graphics/SVG/1.1/DTD/svg11.dtd">
<svg version="1.1" id="Layer_1" xmlns:sketch="http://www.bohemiancoding.com/sketch/ns"
	 xmlns="http://www.w3.org/2000/svg" xmlns:xlink="http://www.w3.org/1999/xlink" x="0px" y="0px" width="36px" height="36px"
	 viewBox="-312 390 36 36" enable-background="new -312 390 36 36" xml:space="preserve">
<title>Imported Layers</title>
<desc>Created with Sketch Beta.</desc>
<g id="Page-1" sketch:type="MSPage">
	<g id="Modals" transform="translate(-1126.000000, -1094.000000)" sketch:type="MSArtboardGroup">
		<g id="Sign-Up-Modals" transform="translate(69.000000, 734.000000)" sketch:type="MSLayerGroup">
			<g id="Sign-Up-Full" transform="translate(804.000000, 159.000000)" sketch:type="MSShapeGroup">
				<g id="Social" transform="translate(20.000000, 108.000000)">
					<g id="Facebook-Button" transform="translate(170.000000, 80.000000)">
						<path id="Imported-Layers" fill="#D4DCED" d="M-220.116,409h-21.768c-0.616,0-1.116,0.5-1.116,1.116v21.768
							c0,0.616,0.5,1.116,1.116,1.116h11.719v-9.33h-3.198v-3.594h3.198v-2.754c0,0-0.17-4.788,4.481-4.686
							c1.287,0.027,2.27,0.053,3.019,0.076v3.362h-1.864c0,0-1.913-0.163-1.913,1.586v2.415h3.573l-0.446,3.594h-3.127V433h6.326
							c0.616,0,1.116-0.5,1.116-1.116v-21.768C-219,409.5-219.5,409-220.116,409"/>
					</g>
				</g>
			</g>
		</g>
	</g>
</g>
</svg>
