<?xml version="1.0" encoding="utf-8"?>
<!-- Generator: Adobe Illustrator 16.0.0, SVG Export Plug-In . SVG Version: 6.00 Build 0)  -->
<!DOCTYPE svg PUBLIC "-//W3C//DTD SVG 1.1//EN" "http://www.w3.org/Graphics/SVG/1.1/DTD/svg11.dtd">
<svg version="1.1" id="Layer_1" xmlns:sketch="http://www.bohemiancoding.com/sketch/ns"
	 xmlns="http://www.w3.org/2000/svg" xmlns:xlink="http://www.w3.org/1999/xlink" x="0px" y="0px" width="36px" height="36px"
	 viewBox="-311.5 390.5 36 36" enable-background="new -311.5 390.5 36 36" xml:space="preserve">
<title>Imported Layers</title>
<desc>Created with Sketch Beta.</desc>
<g id="Page-1" sketch:type="MSPage">
	<g id="Modals" transform="translate(-955.000000, -1093.000000)" sketch:type="MSArtboardGroup">
		<g id="Sign-Up-Modals" transform="translate(69.000000, 734.000000)" sketch:type="MSLayerGroup">
			<g id="Sign-Up-Full" transform="translate(804.000000, 159.000000)" sketch:type="MSShapeGroup">
				<g id="Social" transform="translate(20.000000, 108.000000)">
					<g id="Google-Button" transform="translate(0.000000, 80.000000)">
						<g id="Imported-Layers" transform="translate(63.000000, 13.000000)">
							<path id="Fill-1" fill="#F2D7D4" d="M-298.747,406.359c0.747-0.747,0.809-1.786,0.809-2.37c0-2.337-1.395-5.974-4.088-5.974
								c-0.846,0-1.752,0.423-2.273,1.072c-0.551,0.684-0.714,1.559-0.714,2.402c0,2.174,1.265,5.778,4.058,5.778
								C-300.145,407.269-299.269,406.879-298.747,406.359"/>
							<path id="Fill-2" fill="#F2D7D4" d="M-301.769,409.379c0-0.553,0.165-0.877,0.324-1.267
								c-0.355,0.032-0.712,0.065-1.037,0.065c-1.666,0-2.979-0.604-3.893-1.512v6.086c1.923-0.93,4.265-1.078,5.581-1.166
								C-301.249,411.002-301.769,410.383-301.769,409.379"/>
							<path id="Fill-3" fill="#F2D7D4" d="M-282.626,401.744v-4.693c0-0.787-0.637-1.425-1.425-1.425h-20.898
								c-0.787,0-1.425,0.638-1.425,1.425v2.259c0.179-0.2,0.369-0.397,0.582-0.579c1.852-1.525,4.059-1.785,5.812-1.785h6.686
								l-2.077,1.169h-2.012c0.746,0.616,2.304,1.914,2.304,4.382c0,2.402-1.364,3.539-2.726,4.609
								c-0.422,0.423-0.908,0.877-0.908,1.592c0,0.713,0.485,1.104,0.841,1.395l1.17,0.91c1.428,1.2,2.727,2.305,2.727,4.543
								c0,1.364-0.594,2.731-1.743,3.83h11.668c0.788,0,1.425-0.639,1.425-1.426v-14.972h-4.93v4.931h-1.232v-4.931h-4.933v-1.233
								h4.933v-4.932h1.232v4.932H-282.626"/>
							<path id="Fill-4" fill="#F2D7D4" d="M-296.152,416.812c0-1.655-1.07-2.532-3.537-4.285c-0.261-0.033-0.423-0.033-0.746-0.033
								c-0.294,0-2.046,0.065-3.41,0.52c-0.56,0.203-1.951,0.729-2.53,2.054v2.579c0.293,0.691,0.829,1.279,1.565,1.729h7.361
								C-296.596,418.747-296.152,417.85-296.152,416.812"/>
						</g>
					</g>
				</g>
			</g>
		</g>
	</g>
</g>
</svg>
