<?xml version="1.0" encoding="utf-8"?>
<!-- Generator: Adobe Illustrator 16.0.0, SVG Export Plug-In . SVG Version: 6.00 Build 0)  -->
<!DOCTYPE svg PUBLIC "-//W3C//DTD SVG 1.1//EN" "http://www.w3.org/Graphics/SVG/1.1/DTD/svg11.dtd">
<svg version="1.1" id="Layer_1" xmlns:sketch="http://www.bohemiancoding.com/sketch/ns"
	 xmlns="http://www.w3.org/2000/svg" xmlns:xlink="http://www.w3.org/1999/xlink" x="0px" y="0px" width="36px" height="36px"
	 viewBox="-312 390 36 36" enable-background="new -312 390 36 36" xml:space="preserve">
<title>Imported Layers</title>
<desc>Created with Sketch Beta.</desc>
<g id="Page-1" sketch:type="MSPage">
	<g id="Modals" transform="translate(-1127.000000, -1014.000000)" sketch:type="MSArtboardGroup">
		<g id="Sign-Up-Modals" transform="translate(69.000000, 734.000000)" sketch:type="MSLayerGroup">
			<g id="Sign-Up-Full" transform="translate(804.000000, 159.000000)" sketch:type="MSShapeGroup">
				<g id="Social" transform="translate(20.000000, 108.000000)">
					<g id="Linked-Button" transform="translate(170.000000, 0.000000)">
						<path id="Imported-Layers" fill="#CCE9FA" d="M-219.773,409h-20.453c-0.979,0-1.773,0.77-1.773,1.72v20.562
							c0,0.949,0.794,1.719,1.773,1.719h20.453c0.979,0,1.773-0.77,1.773-1.719V410.72C-218,409.77-218.795,409-219.773,409
							L-219.773,409z M-238,418.037h3.393v10.731H-238V418.037z M-236.338,416.697c-1.197,0-1.971-0.824-1.971-1.854
							c0-1.053,0.798-1.854,2.018-1.854c1.221,0,1.972,0.801,1.995,1.854c0,1.029-0.774,1.854-2.018,1.854H-236.338z
							 M-221.979,428.895h-3.567v-5.741c0-1.442-0.516-2.427-1.807-2.427c-0.985,0-1.572,0.664-1.83,1.305
							c-0.094,0.229-0.117,0.55-0.117,0.87v5.993h-3.567c0,0,0.046-9.725,0-10.731h3.567v1.52c0.475-0.731,1.321-1.771,3.215-1.771
							c2.347,0,4.106,1.534,4.106,4.83V428.895L-221.979,428.895z"/>
					</g>
				</g>
			</g>
		</g>
	</g>
</g>
</svg>
