<?xml version="1.0" encoding="utf-8"?>
<!-- Generator: Adobe Illustrator 16.0.0, SVG Export Plug-In . SVG Version: 6.00 Build 0)  -->
<!DOCTYPE svg PUBLIC "-//W3C//DTD SVG 1.1//EN" "http://www.w3.org/Graphics/SVG/1.1/DTD/svg11.dtd">
<svg version="1.1" id="Layer_1" xmlns:sketch="http://www.bohemiancoding.com/sketch/ns"
	 xmlns="http://www.w3.org/2000/svg" xmlns:xlink="http://www.w3.org/1999/xlink" x="0px" y="0px" width="36px" height="36px"
	 viewBox="-312 388 36 36" enable-background="new -312 388 36 36" xml:space="preserve">
<title>Imported Layers</title>
<desc>Created with Sketch Beta.</desc>
<g id="Page-1" sketch:type="MSPage">
	<g id="Modals" transform="translate(-956.000000, -1016.000000)" sketch:type="MSArtboardGroup">
		<g id="Sign-Up-Modals" transform="translate(69.000000, 734.000000)" sketch:type="MSLayerGroup">
			<g id="Sign-Up-Full" transform="translate(804.000000, 159.000000)" sketch:type="MSShapeGroup">
				<g id="Social" transform="translate(20.000000, 108.000000)">
					<g id="Twitter-Button">
						<path id="Imported-Layers" fill="#E0F2FF" d="M-219,413.436c-0.883,0.398-1.832,0.668-2.828,0.789
							c1.017-0.619,1.797-1.601,2.165-2.77c-0.951,0.574-2.005,0.99-3.127,1.215c-0.897-0.973-2.178-1.58-3.594-1.58
							c-2.72,0-4.924,2.24-4.924,5.004c0,0.393,0.043,0.773,0.127,1.141c-4.092-0.209-7.721-2.201-10.149-5.229
							c-0.424,0.738-0.667,1.599-0.667,2.516c0,1.736,0.869,3.268,2.19,4.165c-0.807-0.026-1.566-0.251-2.23-0.626
							c0,0.021,0,0.042,0,0.062c0,2.425,1.697,4.447,3.95,4.907c-0.413,0.114-0.848,0.175-1.297,0.175
							c-0.317,0-0.626-0.031-0.927-0.089c0.627,1.987,2.445,3.435,4.6,3.475c-1.685,1.343-3.808,2.142-6.115,2.142
							c-0.397,0-0.79-0.023-1.175-0.069c2.179,1.42,4.767,2.248,7.548,2.248c9.057,0,14.01-7.624,14.01-14.237
							c0-0.217-0.005-0.433-0.015-0.647C-220.494,415.32-219.66,414.439-219,413.436"/>
					</g>
				</g>
			</g>
		</g>
	</g>
</g>
</svg>
