<?xml version="1.0" encoding="utf-8"?>
<!-- Generator: Adobe Illustrator 16.0.0, SVG Export Plug-In . SVG Version: 6.00 Build 0)  -->
<!DOCTYPE svg PUBLIC "-//W3C//DTD SVG 1.1//EN" "http://www.w3.org/Graphics/SVG/1.1/DTD/svg11.dtd">
<svg version="1.1" id="Layer_1" xmlns:sketch="http://www.bohemiancoding.com/sketch/ns"
	 xmlns="http://www.w3.org/2000/svg" xmlns:xlink="http://www.w3.org/1999/xlink" x="0px" y="0px" width="48px" height="48px"
	 viewBox="-309 393 48 48" enable-background="new -309 393 48 48" xml:space="preserve">
<title>Imported Layers</title>
<desc>Created with Sketch Beta.</desc>
<g id="Page-1" sketch:type="MSPage">
	<g id="Pricing" transform="translate(-130.000000, -1931.000000)" sketch:type="MSArtboardGroup">
		<g id="What_x27_s-Included" transform="translate(130.000000, 1714.000000)" sketch:type="MSLayerGroup">
			<g id="Text" transform="translate(0.000000, 86.000000)" sketch:type="MSShapeGroup">
				<g id="Courses" transform="translate(0.000000, 124.000000)">
					<path id="Imported-Layers" fill="#BCA97A" d="M-270,407h-2v-3c0-0.552-0.448-1-1-1s-1,0.448-1,1v3h-22v-3c0-0.552-0.448-1-1-1
						s-1,0.448-1,1v3h-2c-3.314,0-6,2.686-6,6v26c0,3.314,2.686,6,6,6h30c3.314,0,6-2.686,6-6v-26C-264,409.686-266.686,407-270,407
						L-270,407z M-300,409h2v1c0,0.552,0.448,1,1,1s1-0.448,1-1v-1h22v1c0,0.552,0.448,1,1,1s1-0.448,1-1v-1h2c2.206,0,4,1.794,4,4
						v2h-38v-2C-304,410.794-302.206,409-300,409L-300,409z M-270,443h-30c-2.206,0-4-1.795-4-4v-22h38v22
						C-266,441.205-267.794,443-270,443L-270,443z"/>
				</g>
			</g>
		</g>
	</g>
</g>
</svg>
