<?xml version="1.0" encoding="utf-8"?>
<!-- Generator: Adobe Illustrator 16.0.0, SVG Export Plug-In . SVG Version: 6.00 Build 0)  -->
<!DOCTYPE svg PUBLIC "-//W3C//DTD SVG 1.1//EN" "http://www.w3.org/Graphics/SVG/1.1/DTD/svg11.dtd">
<svg version="1.1" id="Layer_1" xmlns:sketch="http://www.bohemiancoding.com/sketch/ns"
	 xmlns="http://www.w3.org/2000/svg" xmlns:xlink="http://www.w3.org/1999/xlink" x="0px" y="0px" width="24px" height="24px"
	 viewBox="-307 394 24 24" enable-background="new -307 394 24 24" xml:space="preserve">
<title>Imported Layers</title>
<desc>Created with Sketch Beta.</desc>
<g id="Page-1" sketch:type="MSPage">
	<g id="Courses" transform="translate(-826.000000, -2619.000000)" sketch:type="MSArtboardGroup">
		<g id="Footer" transform="translate(0.000000, 2410.000000)" sketch:type="MSLayerGroup">
			<g id="For-Organizations" transform="translate(801.000000, 185.000000)" sketch:type="MSShapeGroup">
				<path id="Imported-Layers" fill="#969696" d="M-262,424h-3v-1c0-1.657-1.342-3-3-3h-4c-1.658,0-3,1.343-3,3v1h-3
					c-1.657,0-3,1.344-3,3v10c0,1.656,1.343,3,3,3h16c1.656,0,3-1.344,3-3v-10C-259,425.344-260.344,424-262,424L-262,424z
					 M-275,426h10v12h-10V426z M-273,423c0-0.553,0.447-1,1-1h4c0.553,0,1,0.447,1,1v1h-6V423L-273,423z M-279,437v-10
					c0-0.553,0.447-1,1-1h1v12h-1C-278.553,438-279,437.553-279,437L-279,437z M-261,437c0,0.553-0.447,1-1,1h-1v-12h1
					c0.553,0,1,0.447,1,1V437L-261,437z"/>
			</g>
		</g>
	</g>
</g>
</svg>
