<?xml version="1.0" encoding="utf-8"?>
<!-- Generator: Adobe Illustrator 16.0.0, SVG Export Plug-In . SVG Version: 6.00 Build 0)  -->
<!DOCTYPE svg PUBLIC "-//W3C//DTD SVG 1.1//EN" "http://www.w3.org/Graphics/SVG/1.1/DTD/svg11.dtd">
<svg version="1.1" id="Layer_1" xmlns:sketch="http://www.bohemiancoding.com/sketch/ns"
	 xmlns="http://www.w3.org/2000/svg" xmlns:xlink="http://www.w3.org/1999/xlink" x="0px" y="0px" width="24px" height="24px"
	 viewBox="-309 393 24 24" enable-background="new -309 393 24 24" xml:space="preserve">
<title>Imported Layers</title>
<desc>Created with Sketch Beta.</desc>
<g id="Page-1" sketch:type="MSPage">
	<g id="Course" transform="translate(-920.000000, -526.000000)" sketch:type="MSArtboardGroup">
		<g id="Informations" transform="translate(0.000000, 68.000000)" sketch:type="MSLayerGroup">
			<g id="Buy-Button-_x2B_-Stats" transform="translate(920.000000, 317.000000)" sketch:type="MSShapeGroup">
				<g id="Stats">
					<g id="Reviews" transform="translate(0.000000, 141.000000)">
						<path id="Imported-Layers" fill="#969696" d="M-290.455,397.637c0.451,0,0.818,0.367,0.818,0.818v9
							c0,0.451-0.367,0.817-0.818,0.817h-7.069l-3.566,2.548v-2.548h-2.455c-0.452,0-0.818-0.366-0.818-0.817v-9
							c0-0.451,0.367-0.818,0.818-0.818H-290.455 M-290.455,396h-13.09c-1.355,0-2.455,1.1-2.455,2.455v9
							c0,1.355,1.099,2.454,2.455,2.454h0.818V414l5.727-4.091h6.545c1.355,0,2.455-1.099,2.455-2.454v-9
							C-288,397.1-289.1,396-290.455,396"/>
					</g>
				</g>
			</g>
		</g>
	</g>
</g>
</svg>
