<?xml version="1.0" encoding="utf-8"?>
<!-- Generator: Adobe Illustrator 16.0.0, SVG Export Plug-In . SVG Version: 6.00 Build 0)  -->
<!DOCTYPE svg PUBLIC "-//W3C//DTD SVG 1.1//EN" "http://www.w3.org/Graphics/SVG/1.1/DTD/svg11.dtd">
<svg version="1.1" id="Layer_1" xmlns:sketch="http://www.bohemiancoding.com/sketch/ns"
	 xmlns="http://www.w3.org/2000/svg" xmlns:xlink="http://www.w3.org/1999/xlink" x="0px" y="0px" width="24px" height="24px"
	 viewBox="-309 393 24 24" enable-background="new -309 393 24 24" xml:space="preserve">
<title>Imported Layers</title>
<desc>Created with Sketch Beta.</desc>
<g id="Page-1" sketch:type="MSPage">
	<g id="Course" transform="translate(-920.000000, -432.000000)" sketch:type="MSArtboardGroup">
		<g id="Informations" transform="translate(0.000000, 68.000000)" sketch:type="MSLayerGroup">
			<g id="Buy-Button-_x2B_-Stats" transform="translate(920.000000, 317.000000)" sketch:type="MSShapeGroup">
				<g id="Stats">
					<g id="Time" transform="translate(0.000000, 47.000000)">
						<path id="Imported-Layers" fill="#969696" d="M-297,396c-4.971,0-9,4.029-9,9s4.029,9,9,9s9-4.029,9-9S-292.029,396-297,396
							L-297,396z M-297,412.363c-4.067,0-7.364-3.297-7.364-7.363s3.297-7.363,7.364-7.363c4.066,0,7.363,3.297,7.363,7.363
							S-292.934,412.363-297,412.363L-297,412.363z M-293.967,406.876c0.319,0.319,0.319,0.838,0,1.157
							c-0.16,0.16-0.369,0.239-0.578,0.239c-0.21,0.001-0.42-0.079-0.579-0.239l-2.455-2.455c-0.153-0.152-0.24-0.361-0.24-0.578
							v-4.909c0-0.452,0.367-0.818,0.818-0.818c0.451,0,0.818,0.366,0.818,0.818v4.57L-293.967,406.876L-293.967,406.876z"/>
					</g>
				</g>
			</g>
		</g>
	</g>
</g>
</svg>
