<?xml version="1.0" encoding="utf-8"?>
<!-- Generator: Adobe Illustrator 16.0.0, SVG Export Plug-In . SVG Version: 6.00 Build 0)  -->
<!DOCTYPE svg PUBLIC "-//W3C//DTD SVG 1.1//EN" "http://www.w3.org/Graphics/SVG/1.1/DTD/svg11.dtd">
<svg version="1.1" id="Layer_1" xmlns:sketch="http://www.bohemiancoding.com/sketch/ns"
	 xmlns="http://www.w3.org/2000/svg" xmlns:xlink="http://www.w3.org/1999/xlink" x="0px" y="0px" width="24px" height="24px"
	 viewBox="-308.5 393 24 24" enable-background="new -308.5 393 24 24" xml:space="preserve">
<title>Imported Layers</title>
<desc>Created with Sketch Beta.</desc>
<g id="Page-1" sketch:type="MSPage">
	<g id="Course" transform="translate(-920.000000, -479.000000)" sketch:type="MSArtboardGroup">
		<g id="Informations" transform="translate(0.000000, 68.000000)" sketch:type="MSLayerGroup">
			<g id="Buy-Button-_x2B_-Stats" transform="translate(920.000000, 317.000000)" sketch:type="MSShapeGroup">
				<g id="Stats">
					<g id="Users" transform="translate(0.000000, 94.000000)">
						<path id="Imported-Layers" fill="#969696" d="M-293.201,406.42c0.895-0.854,1.451-2.051,1.451-3.377v-2.348
							c0-2.593-2.127-4.695-4.75-4.695c-2.624,0-4.75,2.103-4.75,4.695v2.348c0,1.326,0.557,2.522,1.45,3.376
							c-3.62,0.558-6.2,2.003-6.2,3.687v1.547c0,1.297,1.063,2.348,2.375,2.348h14.25c1.312,0,2.375-1.051,2.375-2.348v-1.541
							C-287,408.428-289.58,406.979-293.201,406.42L-293.201,406.42z M-299.667,403.043v-2.348c0-1.729,1.417-3.13,3.167-3.13
							s3.166,1.401,3.166,3.13v2.348c0,1.729-1.417,3.131-3.166,3.131S-299.667,404.772-299.667,403.043L-299.667,403.043z
							 M-288.584,411.652c0,0.432-0.354,0.782-0.791,0.782h-14.25c-0.437,0-0.792-0.351-0.792-0.782v-1.547
							c0-0.183,0.456-0.771,1.811-1.333c1.584-0.657,3.81-1.033,6.105-1.033c2.295,0,4.52,0.378,6.104,1.036
							c1.356,0.562,1.812,1.152,1.812,1.336V411.652L-288.584,411.652z"/>
					</g>
				</g>
			</g>
		</g>
	</g>
</g>
</svg>
