<?xml version="1.0" encoding="utf-8"?>
<!-- Generator: Adobe Illustrator 16.0.0, SVG Export Plug-In . SVG Version: 6.00 Build 0)  -->
<!DOCTYPE svg PUBLIC "-//W3C//DTD SVG 1.1//EN" "http://www.w3.org/Graphics/SVG/1.1/DTD/svg11.dtd">
<svg version="1.1" id="Layer_1" xmlns:sketch="http://www.bohemiancoding.com/sketch/ns"
	 xmlns="http://www.w3.org/2000/svg" xmlns:xlink="http://www.w3.org/1999/xlink" x="0px" y="0px" width="24px" height="24px"
	 viewBox="-309 393 24 24" enable-background="new -309 393 24 24" xml:space="preserve">
<title>Imported Layers</title>
<desc>Created with Sketch Beta.</desc>
<g id="Page-1" sketch:type="MSPage">
	<g id="Course" transform="translate(-920.000000, -385.000000)" sketch:type="MSArtboardGroup">
		<g id="Informations" transform="translate(0.000000, 68.000000)" sketch:type="MSLayerGroup">
			<g id="Buy-Button-_x2B_-Stats" transform="translate(920.000000, 317.000000)" sketch:type="MSShapeGroup">
				<g id="Stats">
					<g id="Access">
						<path id="Imported-Layers" fill="#969696" d="M-290.455,404.182h-1.636v-3.272c0-2.712-2.198-4.909-4.909-4.909
							c-2.711,0-4.909,2.197-4.909,4.909v3.272h-1.636c-1.356,0-2.455,1.099-2.455,2.455v4.908c0,1.356,1.099,2.455,2.455,2.455
							h13.09c1.356,0,2.455-1.099,2.455-2.455v-4.908C-288,405.28-289.099,404.182-290.455,404.182L-290.455,404.182z
							 M-300.273,400.909c0-1.808,1.466-3.272,3.273-3.272c1.807,0,3.273,1.465,3.273,3.272v3.272h-6.546V400.909L-300.273,400.909z
							 M-289.637,411.545c0,0.453-0.365,0.818-0.818,0.818h-13.09c-0.452,0-0.818-0.365-0.818-0.818v-4.908
							c0-0.452,0.366-0.818,0.818-0.818h13.09c0.453,0,0.818,0.366,0.818,0.818V411.545L-289.637,411.545z"/>
					</g>
				</g>
			</g>
		</g>
	</g>
</g>
</svg>
