<?xml version="1.0" encoding="utf-8"?>
<!-- Generator: Adobe Illustrator 16.0.0, SVG Export Plug-In . SVG Version: 6.00 Build 0)  -->
<!DOCTYPE svg PUBLIC "-//W3C//DTD SVG 1.1//EN" "http://www.w3.org/Graphics/SVG/1.1/DTD/svg11.dtd">
<svg version="1.1" id="Layer_1" xmlns:sketch="http://www.bohemiancoding.com/sketch/ns"
	 xmlns="http://www.w3.org/2000/svg" xmlns:xlink="http://www.w3.org/1999/xlink" x="0px" y="0px" width="24px" height="24px"
	 viewBox="-307 395 24 24" enable-background="new -307 395 24 24" xml:space="preserve">
<title>Close</title>
<desc>Created with Sketch Beta.</desc>
<g id="Page-1" sketch:type="MSPage">
	<g id="UI-Elements" transform="translate(-1101.000000, -1163.000000)" sketch:type="MSArtboardGroup">
		<g id="Offscreen" transform="translate(790.000000, 1105.000000)" sketch:type="MSLayerGroup">
			<path id="Close" sketch:type="MSShapeGroup" fill="#969696" fill-opacity="0.3" d="M16,454c-6.075,0-11,4.925-11,11
				s4.925,11,11,11s11-4.925,11-11S22.075,454,16,454L16,454z M16,474c-4.971,0-9-4.029-9-9s4.029-9,9-9s9,4.029,9,9
				S20.971,474,16,474L16,474z M19.535,461.465c-0.39-0.391-1.023-0.391-1.414,0L16,463.586l-2.121-2.121
				c-0.391-0.391-1.024-0.391-1.415,0c-0.39,0.391-0.39,1.023,0,1.414L14.586,465l-2.122,2.121c-0.39,0.391-0.39,1.023,0,1.414
				c0.391,0.391,1.024,0.391,1.415,0L16,466.414l2.121,2.121c0.391,0.391,1.023,0.391,1.414,0s0.391-1.024,0-1.414L17.414,465
				l2.121-2.121C19.926,462.488,19.926,461.855,19.535,461.465L19.535,461.465z"/>
		</g>
	</g>
</g>
</svg>
