<?xml version="1.0" encoding="UTF-8" standalone="no"?>
<svg width="22px" height="22px" viewBox="0 0 22 22" version="1.1" xmlns="http://www.w3.org/2000/svg" xmlns:xlink="http://www.w3.org/1999/xlink" xmlns:sketch="http://www.bohemiancoding.com/sketch/ns">
    <!-- Generator: Sketch Beta 3.1 (8603) - http://www.bohemiancoding.com/sketch -->
    <title>Close</title>
    <desc>Created with Sketch Beta.</desc>
    <defs></defs>
    <g id="Page-1" stroke="none" stroke-width="1" fill="none" fill-rule="evenodd" sketch:type="MSPage">
        <g id="UI-Elements" sketch:type="MSArtboardGroup" transform="translate(-1101.000000, -711.000000)" fill-opacity="0.8" fill="#969696">
            <g id="Offscreen" sketch:type="MSLayerGroup" transform="translate(790.000000, 653.000000)">
                <path d="M322,58 C315.925,58 311,62.92475 311,69 C311,75.07525 315.925,80 322,80 C328.075,80 333,75.07525 333,69 C333,62.92475 328.075,58 322,58 L322,58 Z M322,78 C317.0295,78 313,73.9705 313,69 C313,64.0295 317.0295,60 322,60 C326.9705,60 331,64.0295 331,69 C331,73.9705 326.9705,78 322,78 L322,78 Z M325.53575,65.46475 C325.14525,65.07425 324.5115,65.07425 324.121,65.46475 L322,67.58575 L319.879,65.46475 C319.48825,65.07425 318.855,65.07425 318.46425,65.46475 C318.074,65.85525 318.074,66.48875 318.46425,66.879 L320.58575,69 L318.46425,71.121 C318.074,71.5115 318.074,72.145 318.46425,72.53525 C318.855,72.9255 319.48825,72.9255 319.879,72.53525 L322,70.41425 L324.121,72.53525 C324.5115,72.9255 325.145,72.9255 325.53575,72.53525 C325.926,72.1445 325.926,71.511 325.53575,71.121 L323.41425,69 L325.53575,66.879 C325.926,66.48825 325.926,65.855 325.53575,65.46475 L325.53575,65.46475 Z" id="Close" sketch:type="MSShapeGroup"></path>
            </g>
        </g>
    </g>
</svg>