<?xml version="1.0" encoding="utf-8"?>
<!-- Generator: Adobe Illustrator 16.0.0, SVG Export Plug-In . SVG Version: 6.00 Build 0)  -->
<!DOCTYPE svg PUBLIC "-//W3C//DTD SVG 1.1//EN" "http://www.w3.org/Graphics/SVG/1.1/DTD/svg11.dtd">
<svg version="1.1" id="Layer_1" xmlns:sketch="http://www.bohemiancoding.com/sketch/ns"
	 xmlns="http://www.w3.org/2000/svg" xmlns:xlink="http://www.w3.org/1999/xlink" x="0px" y="0px" width="48px" height="48px"
	 viewBox="-309 393 48 48" enable-background="new -309 393 48 48" xml:space="preserve">
<title>Imported Layers</title>
<desc>Created with Sketch Beta.</desc>
<g id="Page-1" sketch:type="MSPage">
	<g id="Values" transform="translate(-870.000000, -1902.000000)" sketch:type="MSArtboardGroup">
		<g id="Texts-_x2B_-Icons" transform="translate(130.000000, 1902.000000)" sketch:type="MSLayerGroup">
			<path id="Imported-Layers" sketch:type="MSShapeGroup" fill="#31BB9B" d="M475,438h-27.62c-7.378,0-13.38-6.003-13.38-13.381
				c0-7.379,6.002-13.381,13.38-13.381c0.668,0,1.342,0.053,2.017,0.158c-0.106-0.674-0.159-1.348-0.159-2.016
				c0-7.379,6.002-13.381,13.381-13.381c7.378,0,13.381,6.002,13.381,13.381V437C476,437.552,475.552,438,475,438L475,438z
				 M447.38,413.238c-6.275,0-11.38,5.104-11.38,11.381c0,6.275,5.105,11.381,11.38,11.381H474v-26.619
				c0-6.275-5.105-11.381-11.381-11.381c-6.276,0-11.381,5.105-11.381,11.381c0,1.006,0.143,2.033,0.427,3.053
				c0.097,0.348-0.001,0.721-0.256,0.976c-0.255,0.255-0.628,0.353-0.975,0.256C449.414,413.382,448.387,413.238,447.38,413.238
				L447.38,413.238z"/>
		</g>
	</g>
</g>
</svg>
