<?xml version="1.0" encoding="utf-8"?>
<!-- Generator: Adobe Illustrator 16.0.0, SVG Export Plug-In . SVG Version: 6.00 Build 0)  -->
<!DOCTYPE svg PUBLIC "-//W3C//DTD SVG 1.1//EN" "http://www.w3.org/Graphics/SVG/1.1/DTD/svg11.dtd">
<svg version="1.1" id="Layer_1" xmlns:sketch="http://www.bohemiancoding.com/sketch/ns"
	 xmlns="http://www.w3.org/2000/svg" xmlns:xlink="http://www.w3.org/1999/xlink" x="0px" y="0px" width="48px" height="48px"
	 viewBox="-308.5 393.5 48 48" enable-background="new -308.5 393.5 48 48" xml:space="preserve">
<title>Imported Layers</title>
<desc>Created with Sketch Beta.</desc>
<g id="Page-1" sketch:type="MSPage">
	<g id="Values" transform="translate(-129.000000, -1901.000000)" sketch:type="MSArtboardGroup">
		<g id="Texts-_x2B_-Icons" transform="translate(130.000000, 1902.000000)" sketch:type="MSLayerGroup">
			<g id="Imported-Layers" sketch:type="MSShapeGroup">
				<path id="Fill-1" fill="#31BB9B" d="M-269.669,420.802c-0.052-0.188-3.061-9.869-3.968-12.783
					c-0.134-0.519-0.295-1.039-0.479-1.551c-0.014-0.043-0.029-0.084-0.047-0.125c-0.843-2.248-2.131-4.25-3.832-5.951
					c-3.154-3.154-7.348-4.892-11.809-4.892c-4.46,0-8.654,1.737-11.808,4.892c-6.511,6.512-6.511,17.105,0,23.617
					c1.721,1.721,3.75,3.02,6.029,3.858l0.001-0.001c0.016,0.007,0.033,0.014,0.05,0.02c0.507,0.186,1.027,0.348,1.499,0.467
					c2.962,0.922,12.644,3.93,12.833,3.981c0.813,0.226,1.655,0.339,2.502,0.339c2.502,0,4.855-0.975,6.625-2.744
					C-269.696,427.55-268.774,424.052-269.669,420.802L-269.669,420.802z M-280.659,430.409c-0.279-0.082-8.481-2.63-12.828-3.98
					c-0.457-0.117-0.914-0.259-1.359-0.42c-0.003-0.002-0.009-0.004-0.016-0.007c-0.01-0.004-0.02-0.008-0.03-0.012
					c-2.006-0.738-3.791-1.881-5.306-3.396c-5.732-5.732-5.732-15.058,0-20.789c2.776-2.777,6.468-4.306,10.394-4.306
					c3.927,0,7.618,1.528,10.395,4.306c1.515,1.515,2.658,3.299,3.396,5.306c0.005,0.012,0.009,0.024,0.014,0.036
					c0.002,0.004,0.004,0.007,0.004,0.009c0.162,0.446,0.303,0.903,0.435,1.407c1.336,4.298,3.884,12.5,3.964,12.771
					c0.613,2.231,0.141,4.61-1.234,6.424l-7.846-7.847c0.904-1.074,2.354-3.185,2.354-5.683c0-3.824-1.606-6.709-3.738-6.709
					c-2.133,0-3.739,2.885-3.739,6.709c0,1.058,0.263,2.045,0.632,2.914c-0.261-0.043-0.527-0.077-0.804-0.077
					c-2.845,0-4.909,1.21-4.909,2.876s2.064,2.875,4.909,2.875c1.644,0,3.046-0.861,3.867-1.506l7.856,7.857
					c-1.273,0.971-2.818,1.504-4.449,1.504C-279.366,430.673-280.028,430.583-280.659,430.409L-280.659,430.409z M-283.801,414.229
					c0-2.922,1.126-4.709,1.739-4.709s1.74,1.787,1.74,4.709c0,1.744-1.025,3.326-1.742,4.22
					C-282.78,417.56-283.801,415.984-283.801,414.229L-283.801,414.229z M-283.608,419.942c-0.592,0.419-1.447,0.875-2.364,0.875
					c-1.822,0-2.834-0.647-2.911-0.857c0.077-0.246,1.089-0.894,2.911-0.894C-285.056,419.066-284.2,419.522-283.608,419.942
					L-283.608,419.942z"/>
				<path id="Fill-2" fill="#31BB9B" d="M-265.993,427.195c-0.391-0.392-1.023-0.392-1.414,0l-7.4,7.401
					c-0.391,0.391-0.391,1.022,0,1.414c0.195,0.194,0.451,0.293,0.707,0.293s0.512-0.099,0.707-0.293l7.4-7.401
					C-265.603,428.218-265.603,427.586-265.993,427.195"/>
				<path id="Fill-3" fill="#31BB9B" d="M-264.797,430.761c-0.391-0.392-1.024-0.392-1.414,0l-5.032,5.032
					c-0.391,0.39-0.391,1.023,0,1.414c0.195,0.195,0.451,0.293,0.707,0.293s0.512-0.098,0.707-0.293l5.032-5.032
					C-264.407,431.783-264.407,431.151-264.797,430.761"/>
			</g>
		</g>
	</g>
</g>
</svg>
