<?xml version="1.0" encoding="utf-8"?>
<!-- Generator: Adobe Illustrator 16.0.0, SVG Export Plug-In . SVG Version: 6.00 Build 0)  -->
<!DOCTYPE svg PUBLIC "-//W3C//DTD SVG 1.1//EN" "http://www.w3.org/Graphics/SVG/1.1/DTD/svg11.dtd">
<svg version="1.1" id="Layer_1" xmlns="http://www.w3.org/2000/svg" xmlns:xlink="http://www.w3.org/1999/xlink" x="0px" y="0px"
	 width="24px" height="24px" viewBox="-299.5 402.5 24 24" enable-background="new -299.5 402.5 24 24" xml:space="preserve">
<g id="icomoon-ignore">
	<line fill="none" stroke="#449FDB" x1="0" y1="0" x2="0" y2="0"/>
</g>
<path fill="#FFFFFF" d="M-280.214,413.285h-14.572c-0.67,0-1.214,0.544-1.214,1.215s0.544,1.215,1.214,1.215h14.572
	c0.671,0,1.214-0.544,1.214-1.215S-279.543,413.285-280.214,413.285z M-294.786,410.857h14.572c0.671,0,1.214-0.545,1.214-1.215
	s-0.543-1.215-1.214-1.215h-14.572c-0.67,0-1.214,0.545-1.214,1.215S-295.456,410.857-294.786,410.857z M-280.214,418.143h-14.572
	c-0.67,0-1.214,0.544-1.214,1.215s0.544,1.215,1.214,1.215h14.572c0.671,0,1.214-0.544,1.214-1.215
	S-279.543,418.143-280.214,418.143z"/>
</svg>
