<?xml version="1.0" encoding="utf-8"?>
<!-- Generator: Adobe Illustrator 16.0.0, SVG Export Plug-In . SVG Version: 6.00 Build 0)  -->
<!DOCTYPE svg PUBLIC "-//W3C//DTD SVG 1.1//EN" "http://www.w3.org/Graphics/SVG/1.1/DTD/svg11.dtd">
<svg version="1.1" id="Layer_1" xmlns:sketch="http://www.bohemiancoding.com/sketch/ns"
	 xmlns="http://www.w3.org/2000/svg" xmlns:xlink="http://www.w3.org/1999/xlink" x="0px" y="0px" width="120px" height="120px"
	 viewBox="-318 396 120 120" enable-background="new -318 396 120 120" xml:space="preserve">
<title>PDF</title>
<desc>Created with Sketch Beta.</desc>
<g id="Page-1" sketch:type="MSPage">
	<g id="Become" transform="translate(-602.000000, -416.000000)" sketch:type="MSArtboardGroup">
		<g id="Form" transform="translate(470.000000, 416.000000)" sketch:type="MSLayerGroup">
			<g id="PDF" transform="translate(132.000000, 0.000000)">
				<path id="Base" sketch:type="MSShapeGroup" fill="#F54828" d="M-302,396h88c2.209,0,4,1.791,4,4v112c0,2.209-1.791,4-4,4h-88
					c-2.209,0-4-1.791-4-4V400C-306,397.791-304.209,396-302,396z"/>
				<path sketch:type="MSShapeGroup" fill="#FFFFFF" d="M-243.812,455.697c-0.619,0.055-1.229,0.119-1.834,0.188
					c-7.438-4.482-11.211-10.065-13.652-16.998c0.722-3.236,1.006-6.676,1.099-11.406c0,0-0.557,3.049-2.197,7.906
					c-2.4-8.591-1.396-14.384-1.396-14.384c1.273-4.062,3.781,1.973,3.706,5.132c0.114,0.471,0.179,0.764,0.179,0.764
					c2.117-8.228-2.562-7.896-3.565-7.896s-3.9,0.275-3.566,6.461c0.198,3.656,0.873,9.152,2.855,14.755
					c-0.819,2.04-1.789,4.255-2.935,6.595c-5.411,11.037-15.037,30.181-21.328,31.428c0,0-2.202-1.186,10.506-12.971
					c0,0-5.478,2.107-8.241,4.678c-3.603,3.35-5.852,6.921-4.341,8.355c1.51,1.434,3.46,1.559,4.341,1.372
					c0.82-0.175,5.727-1.658,13.463-15.568c3.421-1.312,10.288-3.495,22.059-5.511c0.472-0.08,0.93-0.154,1.382-0.226
					c6.438,3.723,13.464,5.601,16.571,5.601c4.658,0,4.051-3.513,4.051-3.513c-0.982,1.947-7.947,1.083-15.62-2.726
					c12.944-1.229,15.929,2.107,15.929,2.107C-225.846,456.443-227.852,454.289-243.812,455.697L-243.812,455.697z
					 M-269.968,462.732c0.329-0.611,0.663-1.243,1.001-1.899c4.063-7.882,6.618-12.771,8.215-17.081
					c1.237,2.682,2.816,5.304,4.833,7.674c1.639,1.926,3.62,3.629,5.752,5.113C-259.685,458.207-266.965,461.308-269.968,462.732
					L-269.968,462.732z"/>
				<text transform="matrix(1 0 0 1 -254 501)" fill="#FFFFFF" font-family="'ProximaNovaSoft-Bold'" font-size="16">PDF</text>
			</g>
		</g>
	</g>
</g>
</svg>
