<?xml version="1.0" encoding="utf-8"?>
<!-- Generator: Adobe Illustrator 16.0.0, SVG Export Plug-In . SVG Version: 6.00 Build 0)  -->
<!DOCTYPE svg PUBLIC "-//W3C//DTD SVG 1.1//EN" "http://www.w3.org/Graphics/SVG/1.1/DTD/svg11.dtd">
<svg version="1.1" id="Layer_1" xmlns:sketch="http://www.bohemiancoding.com/sketch/ns"
	 xmlns="http://www.w3.org/2000/svg" xmlns:xlink="http://www.w3.org/1999/xlink" x="0px" y="0px" width="24px" height="24px"
	 viewBox="-299.5 402.5 24 24" enable-background="new -299.5 402.5 24 24" xml:space="preserve">
<title>Twitter</title>
<desc>Created with Sketch Beta.</desc>
<g id="Page-1" sketch:type="MSPage">
	<g id="Instructor-Page" transform="translate(-130.000000, -503.000000)" sketch:type="MSArtboardGroup">
		<g id="Instructor" transform="translate(130.000000, 220.000000)" sketch:type="MSLayerGroup">
			<g id="Social" transform="translate(0.000000, 283.000000)" sketch:type="MSShapeGroup">
				<g id="Twitter">
					<path fill="#2AA9E0" d="M-277.158,409.626c-0.691,0.303-1.435,0.508-2.214,0.6c0.796-0.471,1.407-1.216,1.695-2.104
						c-0.745,0.437-1.569,0.753-2.448,0.924c-0.703-0.739-1.705-1.202-2.814-1.202c-2.128,0-3.855,1.704-3.855,3.808
						c0,0.297,0.034,0.588,0.1,0.865c-3.203-0.157-6.043-1.674-7.945-3.977c-0.332,0.562-0.522,1.216-0.522,1.914
						c0,1.32,0.681,2.485,1.715,3.167c-0.632-0.02-1.226-0.19-1.746-0.476c0,0.017,0,0.031,0,0.048c0,1.844,1.329,3.382,3.092,3.73
						c-0.323,0.087-0.664,0.134-1.015,0.134c-0.249,0-0.49-0.023-0.726-0.067c0.49,1.512,1.914,2.611,3.601,2.643
						c-1.319,1.021-2.981,1.629-4.788,1.629c-0.311,0-0.618-0.018-0.919-0.053c1.706,1.08,3.732,1.709,5.909,1.709
						c7.091,0,10.968-5.798,10.968-10.827c0-0.164-0.004-0.329-0.012-0.492C-278.329,411.061-277.675,410.39-277.158,409.626"/>
				</g>
			</g>
		</g>
	</g>
</g>
</svg>
