<?xml version="1.0" encoding="utf-8"?>
<!-- Generator: Adobe Illustrator 16.0.0, SVG Export Plug-In . SVG Version: 6.00 Build 0)  -->
<!DOCTYPE svg PUBLIC "-//W3C//DTD SVG 1.1//EN" "http://www.w3.org/Graphics/SVG/1.1/DTD/svg11.dtd">
<svg version="1.1" id="Layer_1" xmlns:sketch="http://www.bohemiancoding.com/sketch/ns"
	 xmlns="http://www.w3.org/2000/svg" xmlns:xlink="http://www.w3.org/1999/xlink" x="0px" y="0px" width="24px" height="24px"
	 viewBox="-299.5 402.5 24 24" enable-background="new -299.5 402.5 24 24" xml:space="preserve">
<title>Linkedin</title>
<desc>Created with Sketch Beta.</desc>
<g id="Page-1" sketch:type="MSPage">
	<g id="Instructor-Page" transform="translate(-204.000000, -533.000000)" sketch:type="MSArtboardGroup">
		<g id="Instructor" transform="translate(130.000000, 220.000000)" sketch:type="MSLayerGroup">
			<g id="Social" transform="translate(0.000000, 283.000000)" sketch:type="MSShapeGroup">
				<g id="Linkedin" transform="translate(74.000000, 30.000000)">
					<g id="In" transform="translate(11.000000, 10.000000)">
						<path id="Fill-1" fill="#0078A8" d="M-304.902,411.229h3.223v-9.663h-3.223V411.229z M-303.29,400.246
							c1.124,0,1.823-0.742,1.823-1.67c-0.021-0.949-0.699-1.67-1.802-1.67s-1.824,0.721-1.824,1.67c0,0.928,0.699,1.67,1.781,1.67
							H-303.29L-303.29,400.246z"/>
						<path id="Fill-2" fill="#0078A8" d="M-299.895,411.229h3.223v-5.396c0-0.289,0.021-0.578,0.106-0.784
							c0.232-0.577,0.764-1.174,1.654-1.174c1.167,0,1.633,0.886,1.633,2.184v5.172h3.223v-5.541c0-2.97-1.59-4.351-3.711-4.351
							c-1.739,0-2.501,0.968-2.926,1.628h0.021v-1.4h-3.223C-299.853,402.473-299.895,411.229-299.895,411.229L-299.895,411.229"/>
					</g>
				</g>
			</g>
		</g>
	</g>
</g>
</svg>
