<?xml version="1.0" encoding="utf-8"?>
<!-- Generator: Adobe Illustrator 16.0.0, SVG Export Plug-In . SVG Version: 6.00 Build 0)  -->
<!DOCTYPE svg PUBLIC "-//W3C//DTD SVG 1.1//EN" "http://www.w3.org/Graphics/SVG/1.1/DTD/svg11.dtd">
<svg version="1.1" id="Layer_1" xmlns:sketch="http://www.bohemiancoding.com/sketch/ns"
	 xmlns="http://www.w3.org/2000/svg" xmlns:xlink="http://www.w3.org/1999/xlink" x="0px" y="0px" width="36px" height="36px"
	 viewBox="-310 391.5 36 36" enable-background="new -310 391.5 36 36" xml:space="preserve">
<title>Imported Layers</title>
<desc>Created with Sketch Beta.</desc>
<g id="Page-1" sketch:type="MSPage">
	<g id="Instructor-Page" transform="translate(-130.000000, -653.000000)" sketch:type="MSArtboardGroup">
		<g id="Instructor" transform="translate(130.000000, 220.000000)" sketch:type="MSLayerGroup">
			<g id="Reviews" transform="translate(0.000000, 433.000000)" sketch:type="MSShapeGroup">
				<g id="Rating">
					<path id="Imported-Layers" fill="#FFCE00" d="M-292,396c-0.52,0-0.951,0.352-1.085,0.834l-2.753,8.557h-9.042
						c-0.625,0-1.12,0.547-1.12,1.181c0,0.388,0.192,0.733,0.484,0.938c0.181,0.123,7.303,5.359,7.303,5.359
						s-2.736,8.453-2.789,8.587c-0.04,0.124-0.069,0.259-0.069,0.399c0,0.634,0.507,1.145,1.132,1.145
						c0.239,0,0.46-0.076,0.647-0.205l7.292-5.342c0,0,7.129,5.225,7.291,5.342c0.187,0.129,0.409,0.205,0.647,0.205
						c0.625,0,1.132-0.517,1.132-1.145c0-0.141-0.029-0.275-0.069-0.399c-0.053-0.134-2.788-8.587-2.788-8.587
						s7.121-5.236,7.303-5.359c0.292-0.205,0.484-0.551,0.484-0.944c0-0.628-0.484-1.175-1.108-1.175h-9.042l-2.766-8.557
						C-291.049,396.352-291.48,396-292,396"/>
				</g>
			</g>
		</g>
	</g>
</g>
</svg>
