<?xml version="1.0" encoding="utf-8"?>
<!-- Generator: Adobe Illustrator 16.0.0, SVG Export Plug-In . SVG Version: 6.00 Build 0)  -->
<!DOCTYPE svg PUBLIC "-//W3C//DTD SVG 1.1//EN" "http://www.w3.org/Graphics/SVG/1.1/DTD/svg11.dtd">
<svg version="1.1" id="Layer_1" xmlns:sketch="http://www.bohemiancoding.com/sketch/ns"
	 xmlns="http://www.w3.org/2000/svg" xmlns:xlink="http://www.w3.org/1999/xlink" x="0px" y="0px" width="24px" height="24px"
	 viewBox="-299.5 402.5 24 24" enable-background="new -299.5 402.5 24 24" xml:space="preserve">
<title>Imported Layers</title>
<desc>Created with Sketch Beta.</desc>
<g id="Page-1" sketch:type="MSPage">
	<g id="Instructor-Page" transform="translate(-130.000000, -653.000000)" sketch:type="MSArtboardGroup">
		<g id="Instructor" transform="translate(130.000000, 220.000000)" sketch:type="MSLayerGroup">
			<g id="Reviews" transform="translate(0.000000, 433.000000)" sketch:type="MSShapeGroup">
				<g id="Rating">
					<path id="Imported-Layers" fill="#FFCE00" d="M-287.5,406.785c-0.297,0-0.543,0.202-0.62,0.477l-1.574,4.891h-5.167
						c-0.357,0-0.64,0.312-0.64,0.675c0,0.222,0.11,0.419,0.276,0.536c0.104,0.07,4.173,3.062,4.173,3.062s-1.563,4.829-1.594,4.906
						c-0.022,0.07-0.039,0.148-0.039,0.228c0,0.363,0.29,0.655,0.646,0.655c0.137,0,0.263-0.044,0.371-0.117l4.167-3.054
						c0,0,4.074,2.986,4.166,3.054c0.107,0.073,0.234,0.117,0.37,0.117c0.356,0,0.646-0.297,0.646-0.655
						c0-0.079-0.017-0.157-0.04-0.228c-0.03-0.077-1.593-4.906-1.593-4.906s4.069-2.992,4.173-3.062
						c0.167-0.117,0.276-0.315,0.276-0.539c0-0.359-0.276-0.672-0.633-0.672h-5.167l-1.581-4.891
						C-286.957,406.987-287.203,406.785-287.5,406.785"/>
				</g>
			</g>
		</g>
	</g>
</g>
</svg>
