<?xml version="1.0" encoding="utf-8"?>
<!-- Generator: Adobe Illustrator 16.0.0, SVG Export Plug-In . SVG Version: 6.00 Build 0)  -->
<!DOCTYPE svg PUBLIC "-//W3C//DTD SVG 1.1//EN" "http://www.w3.org/Graphics/SVG/1.1/DTD/svg11.dtd">
<svg version="1.1" id="Layer_1" xmlns:sketch="http://www.bohemiancoding.com/sketch/ns"
	 xmlns="http://www.w3.org/2000/svg" xmlns:xlink="http://www.w3.org/1999/xlink" x="0px" y="0px" width="24px" height="24px"
	 viewBox="-307 395 24 24" enable-background="new -307 395 24 24" xml:space="preserve">
<title>Imported Layers</title>
<desc>Created with Sketch Beta.</desc>
<g id="Page-1" sketch:type="MSPage">
	<g id="Courses" transform="translate(-825.000000, -2522.000000)" sketch:type="MSArtboardGroup">
		<g id="Footer" transform="translate(0.000000, 2410.000000)" sketch:type="MSLayerGroup">
			<g id="Instructor" transform="translate(801.000000, 89.000000)" sketch:type="MSShapeGroup">
				<path id="Imported-Layers" fill="#969696" d="M-263.394,422.31c-4.201-4.248-11.011-4.248-15.211,0
					c-4.201,4.248-4.201,11.135,0,15.381c4.2,4.248,11.01,4.248,15.211,0C-259.194,433.444-259.194,426.558-263.394,422.31
					L-263.394,422.31z M-265.507,423.048l-2.796,2.828c-1.63-1.092-3.764-1.092-5.393,0l-2.796-2.828
					C-273.29,420.453-268.709,420.453-265.507,423.048L-265.507,423.048z M-268.066,430.001c0,1.638-1.314,2.966-2.934,2.966
					c-1.62,0-2.934-1.328-2.934-2.966c0-1.639,1.313-2.967,2.934-2.967C-269.38,427.034-268.066,428.362-268.066,430.001
					L-268.066,430.001z M-277.875,424.446l2.796,2.828c-1.08,1.646-1.08,3.805,0,5.453l-2.796,2.828
					C-280.441,432.316-280.441,427.685-277.875,424.446L-277.875,424.446z M-276.493,436.954l2.796-2.828
					c1.629,1.091,3.763,1.091,5.393,0l2.796,2.828C-268.709,439.548-273.29,439.548-276.493,436.954L-276.493,436.954z
					 M-264.124,435.556l-2.797-2.828c1.079-1.648,1.079-3.807,0-5.453l2.797-2.828
					C-261.558,427.685-261.558,432.316-264.124,435.556L-264.124,435.556z"/>
			</g>
		</g>
	</g>
</g>
</svg>
